<svg id="Calque_56" data-name="Calque 56" xmlns="http://www.w3.org/2000/svg" viewBox="0 0 100 95.93"><defs><style>.cls-1{fill:#fef17e;}.cls-2{fill:#1c1734;}</style></defs><g id="Groupe_14" data-name="Groupe 14"><path id="Tracé_30" data-name="Tracé 30" class="cls-1" d="M52.77,8.37l12.37,25,27.65,4a3.06,3.06,0,0,1,1.7,5.22l-20,19.51,4.72,27.53a3,3,0,0,1-2.5,3.53,3,3,0,0,1-1.94-.31L50,80,25.3,93a3.07,3.07,0,0,1-4.45-3.23l4.72-27.53-20-19.5a3.07,3.07,0,0,1,1.7-5.23l27.65-4,12.36-25A3.06,3.06,0,0,1,51.34,7,3,3,0,0,1,52.77,8.37Z" transform="translate(0 -2.03)"/></g><g id="Groupe_15" data-name="Groupe 15"><path id="Tracé_31" data-name="Tracé 31" class="cls-2" d="M23.86,98a7.74,7.74,0,0,1-7.6-9l4.31-25.12L2.31,46A7.72,7.72,0,0,1,6.59,32.87L31.82,29.2,43.08,6.34A7.68,7.68,0,0,1,50,2h0a7.68,7.68,0,0,1,6.92,4.31L68.18,29.2l25.23,3.67A7.71,7.71,0,0,1,97.69,46L79.43,63.8l4.31,25.13a7.71,7.71,0,0,1-11.2,8.13L50,85.18,27.41,97.06A7.83,7.83,0,0,1,23.86,98Zm50.76-7.46Zm-49.19,0ZM50,74.7,74.08,87.34l-4.6-26.78,19.46-19L62,37.69,50,13.32,38,37.72l-26.9,3.9,19.46,19L26,87.37ZM91.24,39.35Z" transform="translate(0 -2.03)"/></g></svg>